<?xml version="1.0"?>
<svg xmlns="http://www.w3.org/2000/svg" height="512px" viewBox="0 -18 511.99857 511" width="512px"><path d="m340.792969 275.785156c-5.519531 0-10 4.480469-10 10 0 5.519532 4.480469 10 10 10s9.996093-4.480468 9.996093-10c0-5.519531-4.476562-10-9.996093-10zm0 0" fill="#FFFFFF"/><path d="m5.996094 402.144531c-17.835938 33.289063 6.25 73.613281 44.070312 73.613281h411.878906c37.757813 0 61.949219-40.242187 44.019532-73.699218l-205.863282-375.191406c-8.859374-16.511719-25.332031-26.367188-44.066406-26.367188-18.71875 0-35.179687 9.839844-44.042968 26.320312l-205.949219 375.234376c-.015625.03125-.03125.058593-.046875.089843zm17.605468 9.488281 205.945313-375.230468c.011719-.027344.027344-.054688.042969-.082032 5.316406-9.910156 15.199218-15.824218 26.445312-15.824218 11.242188 0 21.128906 5.914062 26.488282 15.90625l205.863281 375.1875c10.703125 19.972656-3.75 44.167968-26.441407 44.167968h-411.878906c-22.667968 0-37.132812-24.144531-26.464844-44.125zm0 0" fill="#FFFFFF"/><path d="m50.066406 435.761719h411.886719c7.585937 0 12.421875-8.148438 8.765625-14.808594l-205.917969-375.273437c-1.757812-3.199219-5.117187-5.1875-8.765625-5.1875-3.648437 0-7.011718 1.988281-8.765625 5.1875l-205.96875 375.273437c-3.652343 6.652344 1.167969 14.808594 8.765625 14.808594zm205.96875-364.488281 189.027344 344.492187h-378.105469zm0 0" fill="#FFFFFF"/><path d="m276.03125 155.804688h-39.992188c-5.523437 0-10 4.476562-10 10v139.976562c0 5.523438 4.476563 10 10 10h39.992188c5.519531 0 10-4.476562 10-10v-139.976562c0-5.523438-4.480469-10-10-10zm-10 139.980468h-19.996094v-119.984375h19.996094zm0 0" fill="#FFFFFF"/><path d="m256.035156 335.777344c-16.539062 0-29.996094 13.457031-29.996094 29.996094 0 16.539062 13.457032 29.996093 29.996094 29.996093 16.539063 0 29.996094-13.457031 29.996094-29.996093 0-16.539063-13.457031-29.996094-29.996094-29.996094zm0 39.996094c-5.515625 0-10-4.488282-10-10 0-5.511719 4.484375-10 10-10 5.511719 0 9.996094 4.488281 9.996094 10 0 5.511718-4.484375 10-9.996094 10zm0 0" fill="#FFFFFF"/><path d="m403.945312 381.046875-34.863281-65.058594c-2.609375-4.867187-8.667969-6.703125-13.535156-4.089843-4.867187 2.605468-6.699219 8.667968-4.089844 13.535156l34.863281 65.058594c2.609376 4.871093 8.667969 6.699218 13.535157 4.089843 4.867187-2.609375 6.699219-8.667969 4.089843-13.535156zm0 0" fill="#FFFFFF"/></svg>
